<?xml version="1.0" encoding="UTF-8"?>
<svg width="21px" height="16px" viewBox="0 0 21 16" version="1.1" xmlns="http://www.w3.org/2000/svg" xmlns:xlink="http://www.w3.org/1999/xlink">
    <!-- Generator: Sketch 46.2 (44496) - http://www.bohemiancoding.com/sketch -->
    <title>open menu_white</title>
    <desc>Created with Sketch.</desc>
    <defs></defs>
    <g id="Blocks-&amp;-Components" stroke="none" stroke-width="1" fill="none" fill-rule="evenodd">
        <g id="icons/sidebar/black" transform="translate(-5.000000, -5.000000)">
            <g id="open-menu_white">
                <rect id="frame" x="0" y="0" width="28" height="28"></rect>
                <path d="M6.5,5 L16.5,5 C17.3284271,5 18,5.67157288 18,6.5 L18,6.5 C18,7.32842712 17.3284271,8 16.5,8 L6.5,8 C5.67157288,8 5,7.32842712 5,6.5 L5,6.5 L5,6.5 C5,5.67157288 5.67157288,5 6.5,5 L6.5,5 Z M6.5,11.4537815 L24.5,11.4537815 C25.3284271,11.4537815 26,12.1253544 26,12.9537815 C26,13.7822086 25.3284271,14.4537815 24.5,14.4537815 L6.5,14.4537815 C5.67157288,14.4537815 5,13.7822086 5,12.9537815 C5,12.1253544 5.67157288,11.4537815 6.5,11.4537815 L6.5,11.4537815 Z M6.5,17.9831933 L9.5,17.9831933 C10.3284271,17.9831933 11,18.6547662 11,19.4831933 C11,20.3116204 10.3284271,20.9831933 9.5,20.9831933 L6.5,20.9831933 C5.67157288,20.9831933 5,20.3116204 5,19.4831933 C5,18.6547662 5.67157288,17.9831933 6.5,17.9831933 L6.5,17.9831933 Z" id="shapes" fill="#120810"></path>
            </g>
        </g>
    </g>
</svg>