<?xml version="1.0" encoding="UTF-8"?>
<svg width="17px" height="17px" viewBox="0 0 17 17" version="1.1" xmlns="http://www.w3.org/2000/svg" xmlns:xlink="http://www.w3.org/1999/xlink">
    <!-- Generator: Sketch 46.2 (44496) - http://www.bohemiancoding.com/sketch -->
    <title>close</title>
    <desc>Created with Sketch.</desc>
    <defs></defs>
    <g id="Blocks-&amp;-Components" stroke="none" stroke-width="1" fill="none" fill-rule="evenodd">
        <g id="icons/close/small/black/ver_1" transform="translate(-15.000000, -14.000000)">
            <g id="close">
                <rect id="frame" x="0" y="0" width="45" height="45"></rect>
                <path d="M25.3388348,22.2175144 L30.995689,16.5606602 C31.5814755,15.9748737 31.5814755,15.0251263 30.995689,14.4393398 C30.4099026,13.8535534 29.4601551,13.8535534 28.8743687,14.4393398 L28.8743687,14.4393398 L23.2175144,20.0961941 L17.5606602,14.4393398 L17.5606602,14.4393398 C16.9748737,13.8535534 16.0251263,13.8535534 15.4393398,14.4393398 L15.4393398,14.4393398 L15.4393398,14.4393398 C14.8535534,15.0251263 14.8535534,15.9748737 15.4393398,16.5606602 L21.0961941,22.2175144 L15.4393398,27.8743687 C14.8535534,28.4601551 14.8535534,29.4099026 15.4393398,29.995689 L15.4393398,29.995689 C16.0251263,30.5814755 16.9748737,30.5814755 17.5606602,29.995689 L17.5606602,29.995689 L23.2175144,24.3388348 L28.8743687,29.995689 L28.8743687,29.995689 C29.4601551,30.5814755 30.4099026,30.5814755 30.995689,29.995689 L30.995689,29.995689 C31.5814755,29.4099026 31.5814755,28.4601551 30.995689,27.8743687 L25.3388348,22.2175144 Z" id="shapes" fill="#1F111C"></path>
            </g>
        </g>
    </g>
</svg>