<?xml version="1.0" encoding="UTF-8"?>
<svg width="22px" height="16px" viewBox="0 0 22 16" version="1.1" xmlns="http://www.w3.org/2000/svg" xmlns:xlink="http://www.w3.org/1999/xlink">
    <!-- Generator: Sketch 46.2 (44496) - http://www.bohemiancoding.com/sketch -->
    <title>icon</title>
    <desc>Created with Sketch.</desc>
    <defs></defs>
    <g id="Blocks-&amp;-Components" stroke="none" stroke-width="1" fill="none" fill-rule="evenodd">
        <g id="blocks/lists/thumbnail-and-long-text/single-elements/style-1/ver_2" transform="translate(-83.000000, -207.000000)">
            <g id="comments" transform="translate(81.000000, 202.000000)">
                <g id="icon">
                    <rect id="frame" x="0" y="0" width="28" height="28"></rect>
                    <path d="M7.96747546,8.99245398 C7.96747546,6.78748253 9.75994213,5 11.9718016,5 L19.9956739,5 C22.2072021,5 24,6.78883037 24,8.99620271 L24,17.0037973 C24,19.2108391 22.2075333,21 19.9956739,21 L7.96747546,21 L3.95934432,21 C1.74571462,21 1.31106281,19.8367792 2.99324848,18.3978308 L7.96747546,14.1428571 L7.96747546,9.57142857 L7.96747546,8.99245398 Z M11.9756066,10.2583883 L11.9756066,10.4082784 C11.9756066,10.9475749 12.4228996,11.4 12.9746635,11.4 L18.992812,11.4 C19.5379116,11.4 19.9918689,10.9559911 19.9918689,10.4082784 L19.9918689,10.2583883 C19.9918689,9.7190918 19.5445759,9.26666667 18.992812,9.26666667 L12.9746635,9.26666667 C12.4295638,9.26666667 11.9756066,9.71067555 11.9756066,10.2583883 Z M11.9756066,14.5250549 L11.9756066,14.6749451 C11.9756066,15.2142415 12.4200947,15.6666667 12.9683986,15.6666667 L16.9950113,15.6666667 C17.5359114,15.6666667 17.9878033,15.2226578 17.9878033,14.6749451 L17.9878033,14.5250549 C17.9878033,13.9857585 17.5433152,13.5333333 16.9950113,13.5333333 L12.9683986,13.5333333 C12.4274985,13.5333333 11.9756066,13.9773422 11.9756066,14.5250549 Z" id="shapes" fill="#FFFFFF"></path>
                </g>
            </g>
        </g>
    </g>
</svg>