<?xml version="1.0" encoding="UTF-8"?>
<svg width="20px" height="20px" viewBox="0 0 20 20" version="1.1" xmlns="http://www.w3.org/2000/svg" xmlns:xlink="http://www.w3.org/1999/xlink">
    <!-- Generator: Sketch 46.2 (44496) - http://www.bohemiancoding.com/sketch -->
    <title>delete</title>
    <desc>Created with Sketch.</desc>
    <defs></defs>
    <g id="Blocks-&amp;-Components" stroke="none" stroke-width="1" fill="none" fill-rule="evenodd">
        <g id="icons/trash/white" transform="translate(-4.000000, -4.000000)">
            <g id="delete">
                <rect id="frame" x="0" y="0" width="28" height="28"></rect>
                <g id="shapes" transform="translate(4.000000, 4.000000)" fill="#FFFFFF">
                    <path d="M2,3 L18,3 L18,16 L18,16 C18,18.209139 16.209139,20 14,20 L6,20 L6,20 C3.790861,20 2,18.209139 2,16 L2,3 Z M6,7 L6,7 L6,7 C6.55228475,7 7,7.44771525 7,8 L7,16 L7,16 C7,16.5522847 6.55228475,17 6,17 L6,17 L6,17 C5.44771525,17 5,16.5522847 5,16 L5,8 L5,8 C5,7.44771525 5.44771525,7 6,7 Z M10,7 L10,7 L10,7 C10.5522847,7 11,7.44771525 11,8 L11,16 L11,16 C11,16.5522847 10.5522847,17 10,17 L10,17 L10,17 C9.44771525,17 9,16.5522847 9,16 L9,8 L9,8 C9,7.44771525 9.44771525,7 10,7 Z M14,7 L14,7 L14,7 C14.5522847,7 15,7.44771525 15,8 L15,16 L15,16 C15,16.5522847 14.5522847,17 14,17 L14,17 L14,17 C13.4477153,17 13,16.5522847 13,16 L13,8 L13,8 C13,7.44771525 13.4477153,7 14,7 Z" id="Combined-Shape"></path>
                    <path d="M8,0 L12,0 L12,0 C13.6568542,-3.04359188e-16 15,1.34314575 15,3 L15,4 L5,4 L5,3 L5,3 C5,1.34314575 6.34314575,3.04359188e-16 8,0 Z" id="Rectangle-6"></path>
                    <rect id="Rectangle-5" x="0" y="3" width="20" height="2" rx="1"></rect>
                </g>
            </g>
        </g>
    </g>
</svg>