<?xml version="1.0" encoding="UTF-8"?>
<svg width="22px" height="20px" viewBox="0 0 22 20" version="1.1" xmlns="http://www.w3.org/2000/svg" xmlns:xlink="http://www.w3.org/1999/xlink">
    <!-- Generator: Sketch 46.2 (44496) - http://www.bohemiancoding.com/sketch -->
    <title>icon</title>
    <desc>Created with Sketch.</desc>
    <defs></defs>
    <g id="Videos" stroke="none" stroke-width="1" fill="none" fill-rule="evenodd">
        <g id="Videos---Single-Video-Page" transform="translate(-299.000000, -62.000000)">
            <g id="video-box" transform="translate(12.000000, 45.000000)">
                <g id="options-bar" transform="translate(15.000000, 13.000000)">
                    <g id="icon" transform="translate(269.000000, 0.000000)">
                        <rect id="frame" x="0" y="0" width="28" height="28"></rect>
                        <path d="M5,11.0045166 L5,8.99782405 L5,8.99782405 C5,7.34217154 6.33316577,6 8.00354004,6 L11.0070801,6 M17.0115967,6 L20.0057983,6 C21.6594503,6 23,7.35260073 23,8.99440742 L23,11.0473633 M23,17.0275879 L23,18.9928168 C23,20.6536382 21.6658589,22 19.9942627,22 L16.9885254,22 M11.0012207,22 L8.00061035,22 C6.34341901,22 5,20.6644098 5,19.0001977 L5,17.0161133" id="shapes" stroke="#FFFFFF" stroke-width="3" stroke-linecap="round" stroke-linejoin="round"></path>
                    </g>
                </g>
            </g>
        </g>
    </g>
</svg>