<?xml version="1.0" encoding="UTF-8"?>
<svg width="18px" height="19px" viewBox="0 0 18 19" version="1.1" xmlns="http://www.w3.org/2000/svg" xmlns:xlink="http://www.w3.org/1999/xlink">
    <!-- Generator: Sketch 46.2 (44496) - http://www.bohemiancoding.com/sketch -->
    <title>icon</title>
    <desc>Created with Sketch.</desc>
    <defs></defs>
    <g id="Blocks-&amp;-Components" stroke="none" stroke-width="1" fill="none" fill-rule="evenodd">
        <g id="icons/likes/style-3/white">
            <g id="icon" transform="translate(-5.000000, -4.000000)">
                <rect id="frame" x="0" y="0" width="28" height="28"></rect>
                <path d="M7.58566571,20.1313338 L7.58566571,12.236271 C7.58566571,11.5259646 7.00689751,10.9501634 6.29283286,10.9501634 C5.578966,10.9501634 5,11.5259646 5,12.236271 L5,20.1313338 C5,20.8416403 5.578966,21.4174414 6.29283286,21.4174414 C7.00689751,21.4174414 7.58566571,20.8416403 7.58566571,20.1313338 L7.58566571,20.1313338 Z M16.7215395,22.1977697 C14.2666208,22.1977697 10.4118585,21.3848041 9.45746457,20.7083218 C9.24799241,20.5597726 9.12357505,20.3196412 9.12357505,20.0636856 L9.12357505,12.3288423 C9.12357505,12.0867328 9.23493749,11.8580739 9.42581627,11.7079423 C9.48416782,11.6620523 10.8727368,10.5737465 12.3224265,9.77858309 C14.1226211,8.79016727 15.3636298,7.39784009 15.658948,6.53305042 C16.0238924,5.46412925 16.5237377,4 18.1459106,4 C18.9157554,4 19.5479301,4.43457065 19.8800394,5.19215172 C20.5535546,6.72847864 19.8442372,8.86236494 18.6613822,10.5492191 C19.4577324,10.735944 20.4461482,10.9784491 21.0261032,11.1600312 C22.1062991,11.4978767 22.8351989,12.2786006 22.975836,13.2480274 C23.1204292,14.2439597 22.611485,15.2402876 21.5732232,16.0130994 C20.8112904,18.0880408 19.4785016,21.376892 18.510855,21.9151109 C18.1534271,22.1139017 17.5093843,22.1977697 16.7215395,22.1977697 Z" id="shapes" fill="#FFFFFF"></path>
            </g>
        </g>
    </g>
</svg>