<?xml version="1.0" encoding="UTF-8"?>
<svg width="20px" height="24px" viewBox="0 0 20 24" version="1.1" xmlns="http://www.w3.org/2000/svg" xmlns:xlink="http://www.w3.org/1999/xlink">
    <!-- Generator: Sketch 46.2 (44496) - http://www.bohemiancoding.com/sketch -->
    <title>paypal</title>
    <desc>Created with Sketch.</desc>
    <defs></defs>
    <g id="Blocks-&amp;-Components" stroke="none" stroke-width="1" fill="none" fill-rule="evenodd">
        <g id="blocks/payment/pre-built/paypal-button/no-title" transform="translate(-87.000000, -15.000000)">
            <g id="large-btn" transform="translate(16.000000, 0.000000)">
                <g id="paypal" transform="translate(54.000000, 0.000000)">
                    <rect id="frame" x="0" y="0" width="53" height="53"></rect>
                    <path d="M36.8815789,23.6517857 C37.0394737,24.4017857 37.0219298,25.3125 36.8289474,26.3839286 C36.0657895,30.3482143 33.5877193,32.3303571 29.3947368,32.3303571 L28.8157895,32.3303571 C28.5964912,32.3303571 28.4035088,32.4040179 28.2368421,32.5513393 C28.0701754,32.6986607 27.9649123,32.8883929 27.9210526,33.1205357 L27.8684211,33.375 L27.1447368,38.0089286 L27.1184211,38.2098214 C27.0745614,38.4419643 26.9671053,38.6316964 26.7960526,38.7790179 C26.625,38.9263393 26.4298246,39 26.2105263,39 L22.9078947,39 C22.7236842,39 22.5789474,38.9330357 22.4736842,38.7991071 C22.3684211,38.6651786 22.3289474,38.5044643 22.3552632,38.3169643 C22.4342105,37.8169643 22.5504386,37.0669643 22.7039474,36.0669643 C22.8574561,35.0669643 22.9736842,34.3169643 23.0526316,33.8169643 C23.1315789,33.3169643 23.25,32.5691964 23.4078947,31.5736607 C23.5657895,30.578125 23.6842105,29.8303571 23.7631579,29.3303571 C23.8070175,29 23.995614,28.8348214 24.3289474,28.8348214 L26.0526316,28.8348214 C27.2192982,28.8526786 28.254386,28.7589286 29.1578947,28.5535714 C30.6929825,28.2053571 31.9517544,27.5625 32.9342105,26.625 C33.8289474,25.7767857 34.5087719,24.6785714 34.9736842,23.3303571 C35.1842105,22.7053571 35.3377193,22.1116071 35.4342105,21.5491071 C35.4429825,21.4955357 35.4539474,21.4620536 35.4671053,21.4486607 C35.4802632,21.4352679 35.495614,21.4308036 35.5131579,21.4352679 C35.5307018,21.4397321 35.5570175,21.4553571 35.5921053,21.4821429 C36.2850877,22.0089286 36.7149123,22.7321429 36.8815789,23.6517857 Z M34.6184211,19.875 C34.6184211,20.8303571 34.4166667,21.8839286 34.0131579,23.0357143 C33.3114035,25.1160714 31.9868421,26.5223214 30.0394737,27.2544643 C29.0482456,27.6116071 27.9429825,27.7991071 26.7236842,27.8169643 C26.7236842,27.8258929 26.3289474,27.8303571 25.5394737,27.8303571 L24.3552632,27.8169643 C23.4780702,27.8169643 22.9605263,28.2455357 22.8026316,29.1026786 C22.7850877,29.1741071 22.4122807,31.5401786 21.6842105,36.2008929 C21.6754386,36.2901786 21.622807,36.3348214 21.5263158,36.3348214 L17.6447368,36.3348214 C17.4517544,36.3348214 17.2916667,36.2611607 17.1644737,36.1138393 C17.0372807,35.9665179 16.9868421,35.7946429 17.0131579,35.5982143 L20.0657895,15.8973214 C20.1096491,15.6383929 20.2302632,15.4241071 20.4276316,15.2544643 C20.625,15.0848214 20.8508772,15 21.1052632,15 L28.9736842,15 C29.2719298,15 29.6995614,15.0580357 30.2565789,15.1741071 C30.8135965,15.2901786 31.3026316,15.4330357 31.7236842,15.6026786 C32.6622807,15.96875 33.379386,16.5178571 33.875,17.25 C34.370614,17.9821429 34.6184211,18.8571429 34.6184211,19.875 Z" id="shapes" fill="#FFFFFF" fill-rule="nonzero"></path>
                </g>
            </g>
        </g>
    </g>
</svg>