<?xml version="1.0" encoding="UTF-8"?>
<svg width="16px" height="18px" viewBox="0 0 16 18" version="1.1" xmlns="http://www.w3.org/2000/svg" xmlns:xlink="http://www.w3.org/1999/xlink">
    <!-- Generator: Sketch 46.2 (44496) - http://www.bohemiancoding.com/sketch -->
    <title>icon</title>
    <desc>Created with Sketch.</desc>
    <defs></defs>
    <g id="Blocks-&amp;-Components" stroke="none" stroke-width="1" fill="none" fill-rule="evenodd">
        <g id="blocks/lists/thumbnail-and-long-text/single-elements/style-1/ver_2" transform="translate(-146.000000, -206.000000)">
            <g id="share" transform="translate(140.000000, 201.000000)">
                <g id="icon">
                    <rect id="frame" x="0" y="0" width="28" height="28"></rect>
                    <path d="M12.2564892,12.5804492 C12.3505607,12.8819224 12.4012499,13.2025416 12.4012499,13.5349998 C12.4012499,13.8746111 12.348356,14.2018684 12.250357,14.5089829 L16.3147043,16.8555349 C16.9014996,16.1315351 17.797955,15.6687498 18.8024998,15.6687498 C20.5701561,15.6687498 22.0031247,17.1017184 22.0031247,18.8693748 C22.0031247,20.6370311 20.5701561,22.0699997 18.8024998,22.0699997 C17.0348434,22.0699997 15.6018748,20.6370311 15.6018748,18.8693748 C15.6018748,18.6038988 15.6341963,18.3459718 15.6951189,18.0993145 L11.5514893,15.7069888 C10.9667762,16.3395465 10.1299551,16.7356248 9.20062494,16.7356248 C7.4329686,16.7356248 6,15.3026562 6,13.5349998 C6,11.7673435 7.4329686,10.3343749 9.20062494,10.3343749 C10.1372852,10.3343749 10.9799713,10.736726 11.5652779,11.3780228 L15.7001456,8.99075585 C15.6359757,8.73803148 15.6018748,8.47331055 15.6018748,8.20062494 C15.6018748,6.4329686 17.0348434,5 18.8024998,5 C20.5701561,5 22.0031247,6.4329686 22.0031247,8.20062494 C22.0031247,9.96828129 20.5701561,11.4012499 18.8024998,11.4012499 C17.8051971,11.4012499 16.9144308,10.9451132 16.3274436,10.2300825 L12.2564892,12.5804492 Z" id="shapes" fill="#FFFFFF"></path>
                </g>
            </g>
        </g>
    </g>
</svg>