<?xml version="1.0" encoding="UTF-8"?>
<svg width="39px" height="39px" viewBox="0 0 39 39" version="1.1" xmlns="http://www.w3.org/2000/svg" xmlns:xlink="http://www.w3.org/1999/xlink">
    <!-- Generator: Sketch 46.2 (44496) - http://www.bohemiancoding.com/sketch -->
    <title>cancel</title>
    <desc>Created with Sketch.</desc>
    <defs></defs>
    <g id="Blocks-&amp;-Components" stroke="none" stroke-width="1" fill="none" fill-rule="evenodd">
        <g id="icons/close/large" transform="translate(-12.000000, -12.000000)">
            <g id="cancel">
                <rect id="frame" x="0" y="0" width="64" height="64"></rect>
                <path d="M31.5,51 C42.2695526,51 51,42.2695526 51,31.5 C51,20.7304474 42.2695526,12 31.5,12 C20.7304474,12 12,20.7304474 12,31.5 C12,42.2695526 20.7304474,51 31.5,51 Z M33.8388348,31.7175144 L37.3743687,28.1819805 C37.9601551,27.5961941 37.9601551,26.6464466 37.3743687,26.0606602 C36.7885822,25.4748737 35.8388348,25.4748737 35.2530483,26.0606602 L31.7175144,29.5961941 L28.1819805,26.0606602 C27.5961941,25.4748737 26.6464466,25.4748737 26.0606602,26.0606602 C25.4748737,26.6464466 25.4748737,27.5961941 26.0606602,28.1819805 L29.5961941,31.7175144 L26.0606602,35.2530483 C25.4748737,35.8388348 25.4748737,36.7885822 26.0606602,37.3743687 C26.6464466,37.9601551 27.5961941,37.9601551 28.1819805,37.3743687 L31.7175144,33.8388348 L35.2530483,37.3743687 C35.8388348,37.9601551 36.7885822,37.9601551 37.3743687,37.3743687 C37.9601551,36.7885822 37.9601551,35.8388348 37.3743687,35.2530483 L33.8388348,31.7175144 Z" id="shapes" fill="#FFFFFF"></path>
            </g>
        </g>
    </g>
</svg>