<?xml version="1.0" encoding="UTF-8"?>
<svg width="28px" height="17px" viewBox="0 0 28 17" version="1.1" xmlns="http://www.w3.org/2000/svg" xmlns:xlink="http://www.w3.org/1999/xlink">
    <!-- Generator: Sketch 46.2 (44496) - http://www.bohemiancoding.com/sketch -->
    <title>next</title>
    <desc>Created with Sketch.</desc>
    <defs></defs>
    <g id="Blocks-&amp;-Components" stroke="none" stroke-width="1" fill="none" fill-rule="evenodd">
        <g id="icons/next/white" transform="translate(-9.000000, -14.000000)">
            <g id="next">
                <rect id="frame" x="0" y="0" width="45" height="45"></rect>
                <path d="M24.6333775,23.3152848 C23.731288,22.7547195 23.7329893,21.8448062 24.6333775,21.285298 L35.3666225,14.6155763 C36.268712,14.0550109 37,14.3820014 37,15.3325166 L37,29.2680662 C37,30.2245868 36.2670107,30.5445148 35.3666225,29.9850066 L24.6333775,23.3152848 Z M9.67592927,22.974204 C8.7738398,22.4136386 8.77554109,21.5037253 9.67592927,20.9442171 L20.4091743,14.2744954 C21.3112638,13.71393 22.0425518,14.0409206 22.0425518,14.9914357 L22.0425518,28.9269854 C22.0425518,29.883506 21.3095625,30.2034339 20.4091743,29.6439257 L9.67592927,22.974204 Z" id="shapes" fill="#FFFFFF" transform="translate(23.000000, 22.130182) scale(-1, 1) translate(-23.000000, -22.130182) "></path>
            </g>
        </g>
    </g>
</svg>