<?xml version="1.0" encoding="UTF-8"?>
<svg width="27px" height="23px" viewBox="0 0 27 23" version="1.1" xmlns="http://www.w3.org/2000/svg" xmlns:xlink="http://www.w3.org/1999/xlink">
    <!-- Generator: Sketch 46.2 (44496) - http://www.bohemiancoding.com/sketch -->
    <title>Open Queue</title>
    <desc>Created with Sketch.</desc>
    <defs>
        <path d="M6.45053238,5.37157554 L1.49026124,8.16172805 L1.49026124,8.16172805 C1.00890336,8.43249186 0.399188269,8.26177163 0.128424463,7.78041376 C0.0442285392,7.63073211 -5.34079813e-16,7.46188937 -5.55111512e-16,7.29015252 L0,1.70984748 L-2.22044605e-16,1.70984748 C-2.8967998e-16,1.15756273 0.44771525,0.709847484 1,0.709847484 C1.17173686,0.709847484 1.3405796,0.754076024 1.49026124,0.838271947 L6.45053238,3.62842446 L6.45053238,3.62842446 C6.93189026,3.89918827 7.10261048,4.50890336 6.83184668,4.99026124 C6.7420579,5.14988573 6.61015687,5.28178676 6.45053238,5.37157554 Z" id="path-1"></path>
    </defs>
    <g id="Blocks-&amp;-Components" stroke="none" stroke-width="1" fill="none" fill-rule="evenodd">
        <g id="icons/up-next/closed" transform="translate(-8.000000, -9.000000)">
            <g id="Open-Queue">
                <rect id="frame" x="0" y="0" width="45" height="45"></rect>
                <g id="shapes" transform="translate(11.000000, 12.000000)">
                    <rect id="Rectangle-4" fill="#FFFFFF" x="5" y="3" width="11" height="3" rx="1.5"></rect>
                    <rect id="Rectangle-4-Copy" fill="#FFFFFF" x="5" y="10" width="19" height="3" rx="1.5"></rect>
                    <rect id="Rectangle-4-Copy-2" fill="#FFFFFF" x="5" y="17" width="9" height="3" rx="1.5"></rect>
                    <g id="Triangle-2">
                        <use fill="#FFFFFF" fill-rule="evenodd" xlink:href="#path-1"></use>
                        <path stroke="#120810" stroke-width="3" d="M7.18592424,6.67893884 L2.2256531,9.46909136 C1.02225841,10.1460009 -0.502029328,9.71920031 -1.17893884,8.51580561 C-1.38942865,8.14160151 -1.5,7.71949465 -1.5,7.29015252 L-1.5,1.70984748 C-1.5,0.32913561 -0.380711875,-0.790152516 1,-0.790152516 C1.42934214,-0.790152516 1.85144899,-0.679581168 2.2256531,-0.469091358 L7.18592424,2.32106116 C8.38931893,2.99797067 8.8161195,4.52225841 8.13920998,5.7256531 C7.91473804,6.12471432 7.58498546,6.4544669 7.18592424,6.67893884 Z"></path>
                    </g>
                </g>
            </g>
        </g>
    </g>
</svg>