<?xml version="1.0" encoding="UTF-8"?>
<svg width="28px" height="17px" viewBox="0 0 28 17" version="1.1" xmlns="http://www.w3.org/2000/svg" xmlns:xlink="http://www.w3.org/1999/xlink">
    <!-- Generator: Sketch 46.2 (44496) - http://www.bohemiancoding.com/sketch -->
    <title>prev</title>
    <desc>Created with Sketch.</desc>
    <defs></defs>
    <g id="Blocks-&amp;-Components" stroke="none" stroke-width="1" fill="none" fill-rule="evenodd">
        <g id="icons/prev/white" transform="translate(-8.000000, -14.000000)">
            <g id="prev">
                <rect id="frame" x="0" y="0" width="45" height="45"></rect>
                <path d="M23.6333775,23.3152848 C22.731288,22.7547195 22.7329893,21.8448062 23.6333775,21.285298 L34.3666225,14.6155763 C35.268712,14.0550109 36,14.3820014 36,15.3325166 L36,29.2680662 C36,30.2245868 35.2670107,30.5445148 34.3666225,29.9850066 L23.6333775,23.3152848 Z M8.67592927,22.974204 C7.7738398,22.4136386 7.77554109,21.5037253 8.67592927,20.9442171 L19.4091743,14.2744954 C20.3112638,13.71393 21.0425518,14.0409206 21.0425518,14.9914357 L21.0425518,28.9269854 C21.0425518,29.883506 20.3095625,30.2034339 19.4091743,29.6439257 L8.67592927,22.974204 Z" id="shapes" fill="#FFFFFF"></path>
            </g>
        </g>
    </g>
</svg>