<?xml version="1.0" encoding="UTF-8"?>
<svg width="19px" height="22px" viewBox="0 0 19 22" version="1.1" xmlns="http://www.w3.org/2000/svg" xmlns:xlink="http://www.w3.org/1999/xlink">
    <!-- Generator: Sketch 46.2 (44496) - http://www.bohemiancoding.com/sketch -->
    <title>share</title>
    <desc>Created with Sketch.</desc>
    <defs></defs>
    <g id="Blocks-&amp;-Components" stroke="none" stroke-width="1" fill="none" fill-rule="evenodd">
        <g id="icons/share/45x45" transform="translate(-13.000000, -11.000000)">
            <g id="share">
                <rect id="frame" x="0" y="0" width="45" height="45"></rect>
                <g id="shapes" transform="translate(15.000000, 12.000000)">
                    <path d="M12.8560249,8.57142857 C14.0401096,8.57142857 15,9.37674139 15,10.3647591 L15,17.4923838 C15,18.4828129 14.0388642,19.2857143 12.8508657,19.2857143 L2.14913428,19.2857143 C0.962200191,19.2857143 0,18.4804015 0,17.4923838 L0,10.3647591 C0,9.37433 0.965556066,8.57142857 2.14913428,8.57142857" id="Rectangle" stroke="#FFFFFF" stroke-width="2.5" stroke-linecap="round" stroke-linejoin="round"></path>
                    <rect id="2" fill="#FFFFFF" x="6.42857143" y="0" width="2.14285714" height="11.7857143" rx="1.07142857"></rect>
                    <path d="M3.21428571,4.28571429 L3.3556441,4.13114685 L6.87199068,0.286219663 C7.21976129,-0.0940479312 7.78011788,-0.0978651092 8.13439749,0.28951972 L11.7857143,4.28202923" id="3" stroke="#FFFFFF" stroke-width="2" stroke-linecap="round" stroke-linejoin="round"></path>
                </g>
            </g>
        </g>
    </g>
</svg>