<?xml version="1.0" encoding="UTF-8"?>
<svg width="15px" height="15px" viewBox="0 0 15 15" version="1.1" xmlns="http://www.w3.org/2000/svg" xmlns:xlink="http://www.w3.org/1999/xlink">
    <!-- Generator: Sketch 46.2 (44496) - http://www.bohemiancoding.com/sketch -->
    <title>close_black@1x</title>
    <desc>Created with Sketch.</desc>
    <defs></defs>
    <g id="Blocks-&amp;-Components" stroke="none" stroke-width="1" fill="none" fill-rule="evenodd">
        <g id="icons/close/small/white/ver_2/black" transform="translate(-7.000000, -7.000000)">
            <g id="close_black">
                <rect id="frame" x="0" y="0" width="28" height="28"></rect>
                <path d="M16.4360967,14.5 L21.5990212,9.33707546 C22.1336596,8.80243712 22.1336596,7.9356171 21.5990212,7.40097876 C21.0643829,6.86634041 20.1975629,6.86634041 19.6629245,7.40097876 L19.6629245,7.40097876 L14.5,12.5639033 L9.33707546,7.40097876 L9.33707546,7.40097876 C8.80243712,6.86634041 7.9356171,6.86634041 7.40097876,7.40097876 C6.86634041,7.9356171 6.86634041,8.80243712 7.40097876,9.33707546 L12.5639033,14.5 L7.40097876,19.6629245 C6.86634041,20.1975629 6.86634041,21.0643829 7.40097876,21.5990212 C7.9356171,22.1336596 8.80243712,22.1336596 9.33707546,21.5990212 L14.5,16.4360967 L19.6629245,21.5990212 C20.1975629,22.1336596 21.0643829,22.1336596 21.5990212,21.5990212 C22.1336596,21.0643829 22.1336596,20.1975629 21.5990212,19.6629245 L16.4360967,14.5 Z" id="shapes" fill="#1F111C"></path>
            </g>
        </g>
    </g>
</svg>