<?xml version="1.0" encoding="UTF-8"?>
<svg width="25px" height="22px" viewBox="0 0 25 22" version="1.1" xmlns="http://www.w3.org/2000/svg" xmlns:xlink="http://www.w3.org/1999/xlink">
    <!-- Generator: Sketch 46.2 (44496) - http://www.bohemiancoding.com/sketch -->
    <title>follow</title>
    <desc>Created with Sketch.</desc>
    <defs>
        <path d="M23,16 L23,13.5 C23,12.6715729 22.3284271,12 21.5,12 C20.6715729,12 20,12.6715729 20,13.5 L20,13.5 L20,16 L17.5,16 C16.6715729,16 16,16.6715729 16,17.5 C16,18.3284271 16.6715729,19 17.5,19 L20,19 L20,21.5 C20,22.3284271 20.6715729,23 21.5,23 C22.3284271,23 23,22.3284271 23,21.5 L23,19 L25.5,19 C26.3284271,19 27,18.3284271 27,17.5 C27,16.6715729 26.3284271,16 25.5,16 L23,16 Z" id="path-1"></path>
    </defs>
    <g id="Blocks-&amp;-Components" stroke="none" stroke-width="1" fill="none" fill-rule="evenodd">
        <g id="icons/follow/black" transform="translate(-4.000000, -3.000000)">
            <g id="follow">
                <rect id="frame" x="0" y="0" width="29" height="29"></rect>
                <g id="shapes">
                    <g id="icons/person/black/tiny/black">
                        <g id="artist">
                            <rect id="frame" x="0" y="0" width="28" height="28"></rect>
                            <g id="shapes" transform="translate(6.000000, 3.000000)">
                                <path d="M17,19.307846 C17,15.7689168 13.1944204,12.9000479 8.5,12.9000479 C3.80557963,12.9000479 -4.79616347e-14,15.7689168 -4.79616347e-14,19.307846" id="Oval-5" stroke="#1F111C" stroke-width="3" stroke-linecap="round"></path>
                                <circle id="Oval-6" fill="#1F111C" cx="8.57926124" cy="6.19184082" r="5.56412246"></circle>
                            </g>
                        </g>
                    </g>
                    <g id="Combined-Shape">
                        <use fill="#1F111C" fill-rule="evenodd" xlink:href="#path-1"></use>
                        <path stroke="#FFFFFF" stroke-width="2" d="M24,15 L25.5,15 C26.8807119,15 28,16.1192881 28,17.5 C28,18.8807119 26.8807119,20 25.5,20 L24,20 L24,21.5 C24,22.8807119 22.8807119,24 21.5,24 C20.1192881,24 19,22.8807119 19,21.5 L19,20 L17.5,20 C16.1192881,20 15,18.8807119 15,17.5 C15,16.1192881 16.1192881,15 17.5,15 L19,15 L19,13.5 C19,12.1192881 20.1192881,11 21.5,11 C22.8807119,11 24,12.1192881 24,13.5 L24,15 Z"></path>
                    </g>
                </g>
            </g>
        </g>
    </g>
</svg>