<?xml version="1.0" encoding="UTF-8"?>
<svg width="16px" height="20px" viewBox="0 0 16 20" version="1.1" xmlns="http://www.w3.org/2000/svg" xmlns:xlink="http://www.w3.org/1999/xlink">
    <!-- Generator: Sketch 46.2 (44496) - http://www.bohemiancoding.com/sketch -->
    <title>share</title>
    <desc>Created with Sketch.</desc>
    <defs></defs>
    <g id="Blocks-&amp;-Components" stroke="none" stroke-width="1" fill="none" fill-rule="evenodd">
        <g id="icons/share/small/black_v2" transform="translate(-5.000000, -3.000000)">
            <g id="share">
                <rect id="frame" x="0" y="0" width="29" height="29"></rect>
                <g id="shapes" transform="translate(6.500000, 3.642857)">
                    <path d="M11.1418882,8.42857143 C12.168095,8.42857143 13,9.12650921 13,9.98279123 L13,16.1600659 C13,17.0184378 12.1670156,17.7142857 11.137417,17.7142857 L1.86258304,17.7142857 C0.833906832,17.7142857 0,17.0163479 0,16.1600659 L0,9.98279123 C0,9.12441933 0.836815257,8.42857143 1.86258304,8.42857143" id="Rectangle" stroke="#1F111C" stroke-width="2.6" stroke-linecap="round" stroke-linejoin="round"></path>
                    <g id="Group-2" transform="translate(1.706665, 0.996948)">
                        <rect id="2" fill="#1F111C" x="3.57142857" y="0.928571429" width="2.5" height="9.28571429" rx="1.25"></rect>
                        <path d="M0.785714286,3.71428571 L0.919627791,3.58032727 L4.25078008,0.248057041 C4.58023476,-0.081508207 5.11107923,-0.084816428 5.44670011,0.25091709 L8.90571417,3.711092" id="3" stroke="#1F111C" stroke-width="2" stroke-linecap="round" stroke-linejoin="round"></path>
                    </g>
                </g>
            </g>
        </g>
    </g>
</svg>