<svg xmlns="http://www.w3.org/2000/svg" width="17" height="20" viewBox="0 0 17 20">
    <path fill="#1F111C" fill-rule="evenodd" stroke="#1F111C" stroke-width=".5" d="M5.736 3.457C8.294 1.92 11.78 1 15.065 1c.883 0 1.6.75 1.6 1.676l-.002 11.175c-.021 1.06-.84 2.119-2.095 2.576a3.56 3.56 0 0 1-1.213.218c-1.113 0-2.093-.557-2.433-1.493-.463-1.268.42-2.754 1.973-3.318a3.543 3.543 0 0 1 1.213-.218c.337 0 .658.057.957.154V7.705c-2.709 0-5.673.771-7.736 2.013l-.797.479v5.889c-.023 1.06-.84 2.119-2.096 2.576a3.546 3.546 0 0 1-1.213.218c-1.114 0-2.093-.557-2.433-1.493-.463-1.268.42-2.754 1.973-3.318a3.543 3.543 0 0 1 1.212-.218c.337 0 .659.057.958.154V4.91c0-.6.306-1.154.803-1.454z"/>
</svg>
