<?xml version="1.0" encoding="UTF-8"?>
<svg width="18px" height="18px" viewBox="0 0 18 18" version="1.1" xmlns="http://www.w3.org/2000/svg" xmlns:xlink="http://www.w3.org/1999/xlink">
    <!-- Generator: Sketch 46.2 (44496) - http://www.bohemiancoding.com/sketch -->
    <title>remove</title>
    <desc>Created with Sketch.</desc>
    <defs></defs>
    <g id="Blocks-&amp;-Components" stroke="none" stroke-width="1" fill="none" fill-rule="evenodd">
        <g id="icons/remove/white" transform="translate(-6.000000, -5.000000)">
            <g id="remove">
                <rect id="frame" x="0" y="0" width="28" height="28"></rect>
                <path d="M17.5473316,14.2185532 L22.4976937,9.26819097 L22.4976937,9.26819097 C23.2788393,8.48704539 23.2788393,7.22055816 22.4976937,6.43941258 L22.4976937,6.43941258 L22.4976937,6.43941258 C21.7165482,5.65826699 20.4500609,5.65826699 19.6689154,6.43941258 L14.7185532,11.3897748 L9.76819097,6.43941258 C8.98704539,5.65826699 7.72055816,5.65826699 6.93941258,6.43941258 L6.93941258,6.43941258 L6.93941258,6.43941258 C6.15826699,7.22055816 6.15826699,8.48704539 6.93941258,9.26819097 L6.93941258,9.26819097 L11.8897748,14.2185532 L6.93941258,19.1689154 L6.93941258,19.1689154 C6.15826699,19.9500609 6.15826699,21.2165482 6.93941258,21.9976937 C7.72055816,22.7788393 8.98704539,22.7788393 9.76819097,21.9976937 L14.7185532,17.0473316 L19.6689154,21.9976937 C20.4500609,22.7788393 21.7165482,22.7788393 22.4976937,21.9976937 C23.2788393,21.2165482 23.2788393,19.9500609 22.4976937,19.1689154 L22.4976937,19.1689154 L17.5473316,14.2185532 Z" id="shapes" fill="#FFFFFF"></path>
            </g>
        </g>
    </g>
</svg>