<?xml version="1.0" encoding="UTF-8"?>
<svg width="13px" height="13px" viewBox="0 0 13 13" version="1.1" xmlns="http://www.w3.org/2000/svg" xmlns:xlink="http://www.w3.org/1999/xlink">
    <!-- Generator: Sketch 46.2 (44496) - http://www.bohemiancoding.com/sketch -->
    <title>play now</title>
    <desc>Created with Sketch.</desc>
    <defs></defs>
    <g id="Blocks-&amp;-Components" stroke="none" stroke-width="1" fill="none" fill-rule="evenodd">
        <g id="icons/now-playing/white" transform="translate(-7.000000, -7.000000)">
            <g id="play-now">
                <rect id="frame" x="0" y="0" width="28" height="28"></rect>
                <path d="M7,12.5063976 C7,11.6744372 7.66579723,11 8.5,11 C9.32842712,11 10,11.6764628 10,12.5063976 L10,18.4936024 C10,19.3255628 9.33420277,20 8.5,20 C7.67157288,20 7,19.3235372 7,18.4936024 L7,12.5063976 Z M12,8.4912653 C12,7.66766222 12.6657972,7 13.5,7 C14.3284271,7 15,7.66254437 15,8.4912653 L15,18.5087347 C15,19.3323378 14.3342028,20 13.5,20 C12.6715729,20 12,19.3374556 12,18.5087347 L12,8.4912653 Z M17,15.498576 C17,14.6709353 17.6657972,14 18.5,14 C19.3284271,14 20,14.6650298 20,15.498576 L20,18.501424 C20,19.3290647 19.3342028,20 18.5,20 C17.6715729,20 17,19.3349702 17,18.501424 L17,15.498576 Z" id="shapes" fill="#FFFFFF"></path>
            </g>
        </g>
    </g>
</svg>